<?xml version="1.0" encoding="UTF-8" standalone="no"?>
<!-- Generator: Adobe Illustrator 19.0.0, SVG Export Plug-In . SVG Version: 6.00 Build 0)  -->

<svg
   xmlns:dc="http://purl.org/dc/elements/1.1/"
   xmlns:cc="http://creativecommons.org/ns#"
   xmlns:rdf="http://www.w3.org/1999/02/22-rdf-syntax-ns#"
   xmlns:svg="http://www.w3.org/2000/svg"
   xmlns="http://www.w3.org/2000/svg"
   xmlns:sodipodi="http://sodipodi.sourceforge.net/DTD/sodipodi-0.dtd"
   xmlns:inkscape="http://www.inkscape.org/namespaces/inkscape"
   version="1.1"
   id="Layer_1"
   x="0px"
   y="0px"
   viewBox="0 0 472.615 472.615"
   style="enable-background:new 0 0 472.615 472.615;"
   xml:space="preserve"
   sodipodi:docname="ban.svg"
   inkscape:version="0.92.2 (5c3e80d, 2017-08-06)"><metadata
     id="metadata55"><rdf:RDF><cc:Work
         rdf:about=""><dc:format>image/svg+xml</dc:format><dc:type
           rdf:resource="http://purl.org/dc/dcmitype/StillImage" /></cc:Work></rdf:RDF></metadata><defs
     id="defs53" /><sodipodi:namedview
     pagecolor="#ffffff"
     bordercolor="#666666"
     borderopacity="1"
     objecttolerance="10"
     gridtolerance="10"
     guidetolerance="10"
     inkscape:pageopacity="0"
     inkscape:pageshadow="2"
     inkscape:window-width="1920"
     inkscape:window-height="1001"
     id="namedview51"
     showgrid="false"
     inkscape:zoom="0.49934938"
     inkscape:cx="-98.127681"
     inkscape:cy="236.3075"
     inkscape:window-x="-9"
     inkscape:window-y="-9"
     inkscape:window-maximized="1"
     inkscape:current-layer="Layer_1" /><g
     id="g6"><g
       id="g4"><circle
         cx="147.692"
         cy="98.47"
         r="68.923"
         id="circle2" /></g></g><g
     id="g12"><g
       id="g10"><path
         d="M271.266,200.647c-10.266-9.228-22.454-16.234-36.014-20.319l-15.854-4.629l-67.946,67.947l-68.045-67.947l-15.854,4.629    C27.178,192.539,0,228.974,0,271.12v83.407h211.226c-11.629-47.005,0.726-98.784,37.39-135.448    C255.6,212.093,263.203,205.959,271.266,200.647z"
         id="path8" /></g></g><g
     id="g18"
     style="fill:#e64123;fill-opacity:1"><g
       id="g16"
       style="fill:#e64123;fill-opacity:1"><path
         d="M436.618,233.005c-23.253-23.253-54.16-36.053-87.039-36.053c-32.878,0-63.786,12.8-87.039,36.053    c-47.995,47.996-47.995,126.082,0,174.078c23.994,23.993,55.517,35.985,87.039,35.985c31.523,0,63.046-11.992,87.039-35.985    C484.614,359.087,484.614,281.001,436.618,233.005z M246.182,320.044c0-27.619,10.751-53.584,30.283-73.115    c19.531-19.531,45.495-30.283,73.114-30.283c24.309,0,47.327,8.345,65.814,23.659L269.842,385.856    C254.527,367.369,246.182,344.352,246.182,320.044z M422.694,393.157c-37.953,37.954-98.327,40.137-138.912,6.608L429.317,254.23    c15.315,18.487,23.659,41.505,23.659,65.814C452.976,347.662,442.224,373.627,422.694,393.157z"
         id="path14"
         style="fill:#e64123;fill-opacity:1" /></g></g><g
     id="g20" /><g
     id="g22" /><g
     id="g24" /><g
     id="g26" /><g
     id="g28" /><g
     id="g30" /><g
     id="g32" /><g
     id="g34" /><g
     id="g36" /><g
     id="g38" /><g
     id="g40" /><g
     id="g42" /><g
     id="g44" /><g
     id="g46" /><g
     id="g48" /></svg>