<svg height="448pt" viewBox="0 -72 448 448" width="448pt" xmlns="http://www.w3.org/2000/svg"><path d="m336 240h48v16h-48zm0 0"/><path d="m96 48h48v48h-48zm0 0"/><path d="m144 240h48v16h-48zm0 0"/><path d="m48 240h48v16h-48zm0 0"/><path d="m240 240h48v16h-48zm0 0"/><path d="m8 304h432c4.417969 0 8-3.582031 8-8v-288c0-4.417969-3.582031-8-8-8h-432c-4.417969 0-8 3.582031-8 8v288c0 4.417969 3.582031 8 8 8zm104-40c0 4.417969-3.582031 8-8 8h-64c-4.417969 0-8-3.582031-8-8v-32c0-4.417969 3.582031-8 8-8h64c4.417969 0 8 3.582031 8 8zm192 0c0 4.417969-3.582031 8-8 8h-64c-4.417969 0-8-3.582031-8-8v-32c0-4.417969 3.582031-8 8-8h64c4.417969 0 8 3.582031 8 8zm-40-168v-16h112v16zm136 168c0 4.417969-3.582031 8-8 8h-64c-4.417969 0-8-3.582031-8-8v-32c0-4.417969 3.582031-8 8-8h64c4.417969 0 8 3.582031 8 8zm16-168h-24v-16h24zm-96-48h96v16h-96zm-120 0h96v16h-96zm0 32h48v16h-48zm8 152v32c0 4.417969-3.582031 8-8 8h-64c-4.417969 0-8-3.582031-8-8v-32c0-4.417969 3.582031-8 8-8h64c4.417969 0 8 3.582031 8 8zm-128-192c0-4.417969 3.582031-8 8-8h64c4.417969 0 8 3.582031 8 8v64c0 4.417969-3.582031 8-8 8h-64c-4.417969 0-8-3.582031-8-8zm-61.65625 26.34375 32-32c3.140625-3.03125 8.128906-2.988281 11.214844.097656 3.085937 3.085938 3.128906 8.074219.097656 11.214844l-26.34375 26.34375 26.34375 26.34375c2.078125 2.007812 2.914062 4.984375 2.179688 7.78125-.730469 2.796875-2.914063 4.980469-5.710938 5.710938-2.796875.734374-5.773438-.101563-7.78125-2.179688l-32-32c-3.121094-3.125-3.121094-8.1875 0-11.3125zm0 0"/></svg>