<?xml version="1.0" encoding="UTF-8" standalone="no"?>
<svg
   xmlns:dc="http://purl.org/dc/elements/1.1/"
   xmlns:cc="http://creativecommons.org/ns#"
   xmlns:rdf="http://www.w3.org/1999/02/22-rdf-syntax-ns#"
   xmlns:svg="http://www.w3.org/2000/svg"
   xmlns="http://www.w3.org/2000/svg"
   xmlns:sodipodi="http://sodipodi.sourceforge.net/DTD/sodipodi-0.dtd"
   xmlns:inkscape="http://www.inkscape.org/namespaces/inkscape"
   height="496pt"
   viewBox="0 -48 496 496"
   width="496pt"
   version="1.1"
   id="svg8"
   sodipodi:docname="car.svg"
   inkscape:version="0.92.2 (5c3e80d, 2017-08-06)">
  <metadata
     id="metadata14">
    <rdf:RDF>
      <cc:Work
         rdf:about="">
        <dc:format>image/svg+xml</dc:format>
        <dc:type
           rdf:resource="http://purl.org/dc/dcmitype/StillImage" />
      </cc:Work>
    </rdf:RDF>
  </metadata>
  <defs
     id="defs12" />
  <sodipodi:namedview
     pagecolor="#ffffff"
     bordercolor="#666666"
     borderopacity="1"
     objecttolerance="10"
     gridtolerance="10"
     guidetolerance="10"
     inkscape:pageopacity="0"
     inkscape:pageshadow="2"
     inkscape:window-width="1920"
     inkscape:window-height="1001"
     id="namedview10"
     showgrid="false"
     inkscape:zoom="0.71370968"
     inkscape:cx="424.34595"
     inkscape:cy="605.86551"
     inkscape:window-x="-9"
     inkscape:window-y="-9"
     inkscape:window-maximized="1"
     inkscape:current-layer="svg8" />
  <path
     d="m400 304c-17.648438 0-32 14.351562-32 32s14.351562 32 32 32 32-14.351562 32-32-14.351562-32-32-32zm0 48c-8.824219 0-16-7.175781-16-16s7.175781-16 16-16 16 7.175781 16 16-7.175781 16-16 16zm0 0"
     id="path2"
     style="fill:#e64123;fill-opacity:1" />
  <path
     d="m104 304c-17.648438 0-32 14.351562-32 32s14.351562 32 32 32 32-14.351562 32-32-14.351562-32-32-32zm0 48c-8.824219 0-16-7.175781-16-16s7.175781-16 16-16 16 7.175781 16 16-7.175781 16-16 16zm0 0"
     id="path4"
     style="fill:#e64123;fill-opacity:1" />
  <path
     d="m 472,64 h -8 V 0 H 240 L 239.25694,64.371531 232,64 c -13.21316,-0.676469 -24,10.769531 -24,24 v 8 H 91.753906 c -19.777344,0 -36.800781,14.76953 -39.59375,34.34375 l -11.28125,78.92187 -8.71875,1.74219 C 13.519531,214.73437 0,231.23047 0,250.23047 V 328 c 0,13.23047 10.769531,24 24,24 h 18.105469 c 7.132812,27.55859 32.132812,48 61.894531,48 29.76172,0 54.76172,-20.44141 61.89453,-48 h 172.21875 c 7.13281,27.55859 32.13281,48 61.89453,48 29.76172,0 54.76172,-20.44141 61.89453,-48 H 472 c 13.23047,0 24,-10.76953 24,-24 V 88 C 496,74.769531 485.23047,64 472,64 Z M 387.83984,94.199219 448,28.566406 V 149.72656 Z M 372.91016,86.800781 C 367.55078,92.648438 359.92969,96 352,96 344.07031,96 336.44922,92.648438 331.08984,86.800781 L 266.18359,16 h 171.625 z m -56.75,7.398438 L 256,149.72656 V 28.566406 Z m 11.95312,10.746091 C 335.19141,109.47266 343.47266,112 352,112 c 8.52734,0 16.80859,-2.52734 23.88672,-7.05469 L 435.53516,160 H 268.46484 Z M 232,80 h 8 v 96 H 464 V 80 h 8 c 4.41406,0 8,3.585938 8,8 V 240 H 224 V 88 c 0,-4.414062 3.58594,-8 8,-8 z M 35.296875,226.69531 55.121094,222.73437 68,132.60937 C 69.671875,120.85547 79.878906,112 91.753906,112 H 208 V 288 H 192 V 128 h -88.97656 c -8.015628,0 -14.832034,5.99219 -15.832034,13.71094 L 64.222656,285.95312 C 63.398438,286.60937 62.609375,287.30469 61.808594,288 H 16 v -37.76953 c 0,-11.39844 8.121094,-21.30078 19.296875,-23.53516 z M 146.19141,288 C 134.91016,278.07031 120.16797,272 104,272 c -7.734375,0 -15.121094,1.44922 -21.984375,3.97656 L 90.289062,224 H 176 v 64 z M 176,208 h -40 v -8 c 0,-13.23047 -10.76953,-24 -24,-24 H 97.929688 l 5.093752,-32 H 176 Z M 95.382812,192 H 112 c 4.41406,0 8,3.58594 8,8 v 8 H 92.832031 Z M 24,336 c -4.414062,0 -8,-3.58594 -8,-8 V 304 H 48.65625 C 43.183594,313.42578 40,324.33594 40,336 Z m 80,48 c -26.472656,0 -48,-21.52734 -48,-48 0,-26.47266 21.527344,-48 48,-48 26.47266,0 48,21.52734 48,48 0,26.47266 -21.52734,48 -48,48 z m 64,-48 c 0,-11.66406 -3.18359,-22.57422 -8.65625,-32 H 344.66406 C 339.18359,313.42578 336,324.33594 336,336 Z m 232,48 c -26.47266,0 -48,-21.52734 -48,-48 0,-26.47266 21.52734,-48 48,-48 26.47266,0 48,21.52734 48,48 0,26.47266 -21.52734,48 -48,48 z m 80,-56 c 0,4.41406 -3.58594,8 -8,8 h -8 c 0,-11.66406 -3.18359,-22.57422 -8.65625,-32 H 480 Z M 442.19141,288 C 430.91016,278.07031 416.16797,272 400,272 c -16.16797,0 -30.91016,6.07031 -42.19141,16 H 224 v -32 h 256 v 32 z"
     id="path6"
     inkscape:connector-curvature="0"
     sodipodi:nodetypes="sccccsscscccssscsccscsssscccccscccccccccsccccsccccssccsscccsccccsccccsccscccccccsscccccsscccsscccsssssscccccssssssscccscscccccc" />
</svg>
