<?xml version="1.0" encoding="UTF-8" standalone="no"?>
<!-- Generator: Adobe Illustrator 21.0.0, SVG Export Plug-In . SVG Version: 6.00 Build 0)  -->

<svg
   xmlns:dc="http://purl.org/dc/elements/1.1/"
   xmlns:cc="http://creativecommons.org/ns#"
   xmlns:rdf="http://www.w3.org/1999/02/22-rdf-syntax-ns#"
   xmlns:svg="http://www.w3.org/2000/svg"
   xmlns="http://www.w3.org/2000/svg"
   xmlns:sodipodi="http://sodipodi.sourceforge.net/DTD/sodipodi-0.dtd"
   xmlns:inkscape="http://www.inkscape.org/namespaces/inkscape"
   version="1.1"
   id="Capa_1"
   x="0px"
   y="0px"
   viewBox="0 0 512 512"
   style="enable-background:new 0 0 512 512;"
   xml:space="preserve"
   width="512"
   height="512"
   sodipodi:docname="license.svg"
   inkscape:version="0.92.2 (5c3e80d, 2017-08-06)"><metadata
     id="metadata15"><rdf:RDF><cc:Work
         rdf:about=""><dc:format>image/svg+xml</dc:format><dc:type
           rdf:resource="http://purl.org/dc/dcmitype/StillImage" /></cc:Work></rdf:RDF></metadata><defs
     id="defs13" /><sodipodi:namedview
     pagecolor="#ffffff"
     bordercolor="#666666"
     borderopacity="1"
     objecttolerance="10"
     gridtolerance="10"
     guidetolerance="10"
     inkscape:pageopacity="0"
     inkscape:pageshadow="2"
     inkscape:window-width="1920"
     inkscape:window-height="1001"
     id="namedview11"
     showgrid="false"
     inkscape:zoom="0.4609375"
     inkscape:cx="256"
     inkscape:cy="256"
     inkscape:window-x="-9"
     inkscape:window-y="-9"
     inkscape:window-maximized="1"
     inkscape:current-layer="g8" /><g
     id="g8"><path
       d="M161.907,233.246c17.216,0,31.223-14.006,31.223-31.222c0-17.216-14.007-31.223-31.223-31.223   s-31.223,14.006-31.223,31.223C130.685,219.239,144.691,233.246,161.907,233.246z"
       id="path2"
       style="fill:#e64123;fill-opacity:1" /><path
       d="M202.259,248.008c-10.783,9.474-24.903,15.237-40.351,15.237s-29.568-5.763-40.351-15.237   c-15.358,3.333-26.9,17.024-26.9,33.366v59.825h134.502v-59.825C229.158,265.032,217.617,251.342,202.259,248.008z"
       id="path4"
       style="fill:#e64123;fill-opacity:1" /><path
       d="M0,76v360h512V76H0z M307.255,172.613h90.842v30h-90.842V172.613z M259.158,371.199H64.656v-89.825   c0-26.623,16.309-49.495,39.456-59.186c-2.211-6.319-3.428-13.1-3.428-20.164c0-33.758,27.465-61.223,61.223-61.223   s61.223,27.464,61.223,61.223c0,7.061-1.216,13.84-3.426,20.157c23.148,9.69,39.454,32.57,39.454,59.193V371.199z M451.533,339.387   H307.255v-30h144.278V339.387z M451.533,271H307.255v-30h144.278V271z"
       id="path6" /></g></svg>