<?xml version="1.0" encoding="UTF-8" standalone="no"?>
<!-- Generator: Adobe Illustrator 19.0.0, SVG Export Plug-In . SVG Version: 6.00 Build 0)  -->

<svg
   xmlns:dc="http://purl.org/dc/elements/1.1/"
   xmlns:cc="http://creativecommons.org/ns#"
   xmlns:rdf="http://www.w3.org/1999/02/22-rdf-syntax-ns#"
   xmlns:svg="http://www.w3.org/2000/svg"
   xmlns="http://www.w3.org/2000/svg"
   xmlns:sodipodi="http://sodipodi.sourceforge.net/DTD/sodipodi-0.dtd"
   xmlns:inkscape="http://www.inkscape.org/namespaces/inkscape"
   version="1.1"
   id="Capa_1"
   x="0px"
   y="0px"
   viewBox="0 0 511.998 511.998"
   style="enable-background:new 0 0 511.998 511.998;"
   xml:space="preserve"
   sodipodi:docname="shield.svg"
   inkscape:version="0.92.2 (5c3e80d, 2017-08-06)"><metadata
     id="metadata61"><rdf:RDF><cc:Work
         rdf:about=""><dc:format>image/svg+xml</dc:format><dc:type
           rdf:resource="http://purl.org/dc/dcmitype/StillImage" /></cc:Work></rdf:RDF></metadata><defs
     id="defs59" /><sodipodi:namedview
     pagecolor="#ffffff"
     bordercolor="#666666"
     borderopacity="1"
     objecttolerance="10"
     gridtolerance="10"
     guidetolerance="10"
     inkscape:pageopacity="0"
     inkscape:pageshadow="2"
     inkscape:window-width="1920"
     inkscape:window-height="1001"
     id="namedview57"
     showgrid="false"
     inkscape:zoom="0.46093931"
     inkscape:cx="-106.30467"
     inkscape:cy="255.99899"
     inkscape:window-x="-9"
     inkscape:window-y="-9"
     inkscape:window-maximized="1"
     inkscape:current-layer="Capa_1" /><g
     id="g6"
     style="fill:#e64123;fill-opacity:1"><g
       id="g4"
       style="fill:#e64123;fill-opacity:1"><path
         d="M105.999,185.998c-5.52,0-10,4.48-10,10s4.48,10,10,10c5.52,0,10-4.48,10-10S111.519,185.998,105.999,185.998z"
         id="path2"
         style="fill:#e64123;fill-opacity:1" /></g></g><g
     id="g12"
     style="fill:#e64123;fill-opacity:1"><g
       id="g10"
       style="fill:#e64123;fill-opacity:1"><path
         d="M345.999,205.998h-50v-50c0-5.522-4.478-10-10-10h-60c-5.522,0-10,4.478-10,10v50h-50c-5.522,0-10,4.478-10,10v60    c0,5.522,4.478,10,10,10h50v50c0,5.522,4.478,10,10,10h60c5.522,0,10-4.478,10-10v-50h50c5.522,0,10-4.478,10-10v-60    C355.999,210.476,351.521,205.998,345.999,205.998z M335.999,265.998h-50c-5.522,0-10,4.478-10,10v50h-40v-50    c0-5.522-4.478-10-10-10h-50v-40h50c5.522,0,10-4.478,10-10v-50h40v50c0,5.522,4.478,10,10,10h50V265.998z"
         id="path8"
         style="fill:#e64123;fill-opacity:1" /></g></g><g
     id="g18"><g
       id="g16"><path
         d="M410.374,30.741c-16.19,10.512-34.993,16.067-54.375,16.067c-29.642,0-57.583-13.043-76.658-35.786    c-0.001,0-0.001,0-0.001,0C273.465,4.018,264.957,0,255.999,0s-17.466,4.018-23.342,11.021    c-19.075,22.743-47.017,35.786-76.658,35.786c-19.382,0-38.185-5.556-54.375-16.067c-19.773-12.833-45.625,2.276-45.625,25.567    v203.971c0,45.371,14.554,89.7,40.978,124.82c65.37,86.919,151.447,124.53,155.079,126.089c1.259,0.54,2.602,0.811,3.943,0.811    c1.341,0,2.685-0.271,3.943-0.811c3.632-1.559,89.709-39.169,155.078-126.078c26.426-35.131,40.979-79.464,40.979-124.831V56.308    C455.999,33.015,430.141,17.907,410.374,30.741z M399.037,373.087c-54.362,72.275-125.664,109.534-143.044,117.893    c-17.387-8.339-88.551-45.46-143.033-117.904c-23.835-31.677-36.961-71.735-36.961-112.797V56.308    c0-7.613,8.401-12.902,14.734-8.792c19.441,12.621,42.01,19.292,65.266,19.292c35.57,0,69.097-15.648,91.981-42.933    c2.096-2.499,4.943-3.875,8.019-3.875c3.076,0,5.923,1.376,8.018,3.875c22.886,27.284,56.412,42.933,91.982,42.933    c23.256,0,45.824-6.671,65.266-19.292c6.23-4.047,14.734,1.064,14.734,8.792v203.97h0    C435.999,301.337,422.873,341.399,399.037,373.087z"
         id="path14" /></g></g><g
     id="g24"
     style="fill:#e64123;fill-opacity:1"><g
       id="g22"
       style="fill:#e64123;fill-opacity:1"><path
         d="M411.769,80.021c-2.654-1.874-6.051-2.342-9.113-1.257c-15.045,5.338-30.743,8.044-46.656,8.044    c-34.373,0-67.522-12.689-93.342-35.73c-3.793-3.385-9.523-3.385-13.316,0c-25.819,23.041-58.969,35.73-93.342,35.73    c-15.913,0-31.611-2.706-46.656-8.044c-3.064-1.085-6.459-0.617-9.113,1.257c-2.652,1.874-4.23,4.92-4.23,8.168v67.81    c0,5.522,4.478,10,10,10c5.522,0,10-4.478,10-10v-54.293c13.058,3.39,26.46,5.103,40,5.103c36.395,0,71.575-12.433,100-35.181    c28.425,22.748,63.605,35.181,100,35.181c13.54,0,26.942-1.713,40-5.103v158.573c0,32.451-10.273,63.964-28.934,88.74    c-37.813,50.296-83.997,81.439-110.972,96.772c-27.188-15.534-73.669-46.913-111.164-96.756    C126.275,324.244,116,292.723,116,260.278v-24.28c0-5.522-4.478-10-10-10c-5.522,0-10,4.478-10,10v24.28    c0,36.756,11.702,72.548,32.949,100.781c42.051,55.902,94.681,89.75,122.31,104.951c1.501,0.825,3.16,1.238,4.82,1.238    c1.65,0,3.302-0.408,4.796-1.225c27.416-14.984,79.745-48.548,122.172-104.979c21.249-28.216,32.952-64.001,32.952-100.766V88.188    C415.999,84.94,414.421,81.895,411.769,80.021z"
         id="path20"
         style="fill:#e64123;fill-opacity:1" /></g></g><g
     id="g26" /><g
     id="g28" /><g
     id="g30" /><g
     id="g32" /><g
     id="g34" /><g
     id="g36" /><g
     id="g38" /><g
     id="g40" /><g
     id="g42" /><g
     id="g44" /><g
     id="g46" /><g
     id="g48" /><g
     id="g50" /><g
     id="g52" /><g
     id="g54" /></svg>